<svg width="24" height="24" viewBox="0 0 24 24" fill="none" xmlns="http://www.w3.org/2000/svg"  style="overflow: visible;">
<path d="M12.9996 2.051V1C12.9996 0.734784 12.8942 0.48043 12.7067 0.292893C12.5191 0.105357 12.2648 0 11.9996 0C11.7343 0 11.48 0.105357 11.2925 0.292893C11.1049 0.48043 10.9996 0.734784 10.9996 1V2.051C8.98633 2.23149 7.06199 2.9642 5.43855 4.16842C3.81512 5.37263 2.55559 7.00161 1.79875 8.87588C1.04191 10.7501 0.817123 12.797 1.14916 14.7908C1.4812 16.7847 2.35717 18.6482 3.68057 20.176C3.15793 20.4345 2.7212 20.8387 2.42295 21.3397C2.12471 21.8407 1.97767 22.4173 1.99957 23C1.99957 23.2652 2.10492 23.5196 2.29246 23.7071C2.48 23.8946 2.73435 24 2.99957 24C3.26478 24 3.51914 23.8946 3.70667 23.7071C3.89421 23.5196 3.99957 23.2652 3.99957 23C3.99125 22.6918 4.10191 22.3922 4.30858 22.1633C4.51526 21.9345 4.80208 21.794 5.10957 21.771C5.17835 21.7579 5.24544 21.7371 5.30957 21.709C7.2251 23.1947 9.5804 24.001 12.0046 24.001C14.4287 24.001 16.784 23.1947 18.6996 21.709C18.7581 21.736 18.819 21.7574 18.8816 21.773C19.1901 21.794 19.4786 21.9334 19.6869 22.162C19.8952 22.3906 20.0072 22.6908 19.9996 23C19.9996 23.2652 20.1049 23.5196 20.2925 23.7071C20.48 23.8946 20.7343 24 20.9996 24C21.2648 24 21.5191 23.8946 21.7067 23.7071C21.8942 23.5196 21.9996 23.2652 21.9996 23C22.0215 22.4173 21.8744 21.8407 21.5762 21.3397C21.2779 20.8387 20.8412 20.4345 20.3186 20.176C21.642 18.6482 22.5179 16.7847 22.85 14.7908C23.182 12.797 22.9572 10.7501 22.2004 8.87588C21.4435 7.00161 20.184 5.37263 18.5606 4.16842C16.9371 2.9642 15.0128 2.23149 12.9996 2.051ZM2.99957 13C2.99957 11.22 3.52741 9.47991 4.51634 7.99987C5.50527 6.51983 6.91088 5.36627 8.55541 4.68508C10.1999 4.0039 12.0095 3.82567 13.7554 4.17293C15.5012 4.5202 17.1049 5.37737 18.3635 6.63604C19.6222 7.89471 20.4794 9.49836 20.8266 11.2442C21.1739 12.99 20.9957 14.7996 20.3145 16.4442C19.6333 18.0887 18.4797 19.4943 16.9997 20.4832C15.5197 21.4722 13.7796 22 11.9996 22C9.61351 21.9971 7.32602 21.0479 5.63882 19.3607C3.95162 17.6735 3.00248 15.3861 2.99957 13Z" fill="#2D2D2D"/>
<path d="M19.2148 -0.000510024C18.9496 -0.000510024 18.6953 0.104847 18.5077 0.292383C18.3202 0.47992 18.2148 0.734274 18.2148 0.99949C18.2148 1.26471 18.3202 1.51906 18.5077 1.7066C18.6953 1.89413 18.9496 1.99949 19.2148 1.99949C19.5636 1.97298 19.914 2.01737 20.2451 2.12997C20.5762 2.24257 20.881 2.42106 21.1413 2.65467C21.4015 2.88828 21.6118 3.17218 21.7593 3.48924C21.9069 3.8063 21.9887 4.14995 21.9998 4.49949C21.9998 4.76471 22.1052 5.01906 22.2927 5.2066C22.4803 5.39413 22.7346 5.49949 22.9998 5.49949C23.2651 5.49949 23.5194 5.39413 23.707 5.2066C23.8945 5.01906 23.9998 4.76471 23.9998 4.49949C23.987 3.88799 23.8524 3.28517 23.6039 2.72632C23.3553 2.16747 22.9978 1.6638 22.5522 1.24477C22.1067 0.825753 21.582 0.499797 21.009 0.285974C20.4359 0.0721516 19.826 -0.0252424 19.2148 -0.000510024Z" fill="#2D2D2D"/>
<path d="M2 4.49949C2.01115 4.14995 2.09296 3.8063 2.24052 3.48924C2.38807 3.17218 2.59831 2.88828 2.85855 2.65467C3.11879 2.42106 3.42365 2.24257 3.75474 2.12997C4.08583 2.01737 4.43629 1.97298 4.785 1.99949C5.05022 1.99949 5.30457 1.89413 5.49211 1.7066C5.67964 1.51906 5.785 1.26471 5.785 0.99949C5.785 0.734274 5.67964 0.47992 5.49211 0.292383C5.30457 0.104847 5.05022 -0.000510024 4.785 -0.000510024C4.17386 -0.0252424 3.56393 0.0721516 2.99088 0.285974C2.41784 0.499797 1.89319 0.825753 1.44763 1.24477C1.00207 1.6638 0.644547 2.16747 0.395981 2.72632C0.147415 3.28517 0.0127962 3.88799 0 4.49949C0 4.76471 0.105357 5.01906 0.292893 5.2066C0.48043 5.39413 0.734784 5.49949 1 5.49949C1.26522 5.49949 1.51957 5.39413 1.70711 5.2066C1.89464 5.01906 2 4.76471 2 4.49949Z" fill="#2D2D2D"/>
<path d="M13 11.586V7C13 6.73478 12.8946 6.48043 12.7071 6.29289C12.5196 6.10536 12.2652 6 12 6C11.7348 6 11.4804 6.10536 11.2929 6.29289C11.1054 6.48043 11 6.73478 11 7V12C11.0001 12.2652 11.1055 12.5195 11.293 12.707L14.293 15.707C14.4816 15.8892 14.7342 15.99 14.9964 15.9877C15.2586 15.9854 15.5094 15.8802 15.6948 15.6948C15.8802 15.5094 15.9854 15.2586 15.9877 14.9964C15.99 14.7342 15.8892 14.4816 15.707 14.293L13 11.586Z" fill="#2D2D2D"/>

<defs>
<clipPath id="clip0_268_231">
<rect width="24" height="24" fill="white"/>
</clipPath>
</defs>
</svg>
