<svg width="22" height="23" viewBox="0 0 30 30" fill="none" xmlns="http://www.w3.org/2000/svg">
<path d="M12.3995 11.5L21.5883 1.56491C21.9675 1.15571 21.8982 0.551956 21.4345 0.216539C20.9708 -0.116961 20.2894 -0.0585028 19.9102 0.352622L10.9998 9.98675L2.08832 0.351664C1.70807 -0.0594611 1.02665 -0.117919 0.564067 0.215581C0.100401 0.551956 0.0321504 1.15475 0.410234 1.56396L9.60015 11.5L0.411317 21.435C0.0321506 21.8442 0.101484 22.448 0.565151 22.7834C1.02557 23.1169 1.70915 23.0594 2.0894 22.6473L10.9998 13.0132L19.9113 22.6473C20.2916 23.0594 20.9752 23.1159 21.4356 22.7834C21.8992 22.447 21.9675 21.8442 21.5894 21.435L12.3995 11.5Z" fill="#575757"/>
<path d="M12.3995 11.5L21.5883 1.56491C21.9675 1.15571 21.8982 0.551956 21.4345 0.216539C20.9708 -0.116961 20.2894 -0.0585028 19.9102 0.352622L10.9998 9.98675L2.08832 0.351664C1.70807 -0.0594611 1.02665 -0.117919 0.564067 0.215581C0.100401 0.551956 0.0321504 1.15475 0.410234 1.56396L9.60015 11.5L0.411317 21.435C0.0321506 21.8442 0.101484 22.448 0.565151 22.7834C1.02557 23.1169 1.70915 23.0594 2.0894 22.6473L10.9998 13.0132L19.9113 22.6473C20.2916 23.0594 20.9752 23.1159 21.4356 22.7834C21.8992 22.447 21.9675 21.8442 21.5894 21.435L12.3995 11.5Z" stroke="black"/>
</svg>
