<svg width="90" height="45" viewBox="0 0 228 51" fill="none" xmlns="http://www.w3.org/2000/svg">
<g clip-path="url(#clip0_208_161)">
<ellipse cx="26.5" cy="25.5" rx="26.5" ry="25.5" fill="#EEFBF6"/>
<path d="M26.5 0C11.8875 0 0 11.4389 0 25.5C0 39.5611 11.8875 51 26.5 51C41.1125 51 53 39.5611 53 25.5C53 11.4389 41.1125 0 26.5 0ZM25.2832 2.15475L22.4323 8.41288L21.6902 9.52212L24.6472 14.263L20.5441 12.2889L14.5441 18.0625L15.6482 19.125H11.9846L5.91833 13.1006C10.0148 6.82337 17.1256 2.54363 25.2832 2.15475ZM26.5 48.875C13.1065 48.875 2.20833 38.3881 2.20833 25.5C2.20833 21.7388 3.13804 18.1836 4.78546 15.0322L11.0483 21.25H17.6667L19.875 23.375V27.625L24.2917 31.875V40.375H28.7083L35.3333 26.5625L26.5 21.25H20.9792L17.6667 18.0625L20.9792 14.875L25.3958 17L27.6042 14.875L24.285 9.554L27.6925 2.15475C35.7684 2.533 42.8196 6.72137 46.9448 12.8881L39.7522 17.0127L41.9539 25.4851L50.3853 29.767C48.2962 40.6257 38.3808 48.875 26.5 48.875ZM22.0833 26.7453V23.375H25.8662L32.5133 27.3721L27.295 38.25H26.5022V30.9952L22.0855 26.7453H22.0833ZM43.8553 24.0486L42.2918 18.0285L48.0511 14.7262C49.8001 17.952 50.7895 21.6176 50.7895 25.5C50.7895 26.1821 50.7563 26.8557 50.6967 27.523L43.8553 24.0486Z" fill="#116C6C"/>
</g>
<path d="M70.4663 35V33.3389L72.6152 32.9697V17.8481L70.4663 17.479V15.8047H72.6152H75.2124H77.3613V17.479L75.2124 17.8481V33.0093H82.002L82.3052 29.9771H84.2959V35H70.4663ZM91.2041 35.2769C89.7188 35.2769 88.5894 34.9165 87.8159 34.1958C87.0425 33.4663 86.6558 32.4424 86.6558 31.124C86.6558 29.7705 87.2095 28.6851 88.3169 27.8677C89.4243 27.0415 90.9624 26.6284 92.9312 26.6284H95.4756V25.231C95.4756 24.3696 95.2119 23.7017 94.6846 23.2271C94.166 22.7524 93.4321 22.5151 92.4829 22.5151C91.8853 22.5151 91.3667 22.5898 90.9272 22.7393C90.4878 22.8799 90.0879 23.0776 89.7275 23.3325L89.4507 25.3232H87.4468V22.0537C88.0884 21.5352 88.8354 21.144 89.688 20.8804C90.5405 20.6079 91.4854 20.4717 92.5225 20.4717C94.2539 20.4717 95.6118 20.8848 96.5962 21.7109C97.5806 22.5371 98.0728 23.7192 98.0728 25.2573V32.126C98.0728 32.3105 98.0728 32.4907 98.0728 32.6665C98.0815 32.8423 98.0947 33.0181 98.1123 33.1938L99.4966 33.3389V35H95.7656C95.6865 34.6133 95.625 34.2661 95.5811 33.9585C95.5371 33.6509 95.5063 33.3433 95.4888 33.0356C94.9878 33.6772 94.3594 34.2134 93.6035 34.644C92.8564 35.0659 92.0566 35.2769 91.2041 35.2769ZM91.5864 33.1016C92.4478 33.1016 93.2344 32.895 93.9463 32.4819C94.6582 32.0688 95.168 31.5723 95.4756 30.9922V28.4082H92.8389C91.6436 28.4082 90.7471 28.6938 90.1494 29.2651C89.5518 29.8364 89.2529 30.4736 89.2529 31.1768C89.2529 31.8008 89.4463 32.2798 89.833 32.6138C90.2197 32.939 90.8042 33.1016 91.5864 33.1016ZM101.514 35V33.3389L103.663 32.9697V22.7788L101.514 22.4097V20.7354H105.983L106.167 22.8579C106.642 22.1021 107.235 21.5176 107.947 21.1045C108.668 20.6826 109.485 20.4717 110.399 20.4717C111.938 20.4717 113.128 20.9243 113.972 21.8296C114.816 22.7261 115.238 24.1147 115.238 25.9956V32.9697L117.387 33.3389V35H110.492V33.3389L112.641 32.9697V26.0483C112.641 24.7915 112.39 23.8994 111.889 23.3721C111.397 22.8447 110.641 22.5811 109.622 22.5811C108.875 22.5811 108.211 22.7612 107.631 23.1216C107.06 23.4819 106.603 23.9741 106.26 24.5981V32.9697L108.409 33.3389V35H101.514ZM124.704 35.2769C123.543 35.2769 122.546 34.9912 121.711 34.4199C120.885 33.8398 120.252 33.0356 119.812 32.0073C119.373 30.979 119.153 29.7793 119.153 28.4082V28.1313C119.153 26.6021 119.373 25.2617 119.812 24.1104C120.252 22.959 120.889 22.0669 121.724 21.4341C122.559 20.7925 123.561 20.4717 124.73 20.4717C125.574 20.4717 126.316 20.6299 126.958 20.9463C127.608 21.2539 128.162 21.7021 128.619 22.291V16.4771L126.47 16.1079V14.4336H128.619H131.216V32.9697L133.365 33.3389V35H128.962L128.751 33.2993C128.285 33.9497 127.714 34.4419 127.037 34.7759C126.369 35.1099 125.591 35.2769 124.704 35.2769ZM125.363 33.1675C126.136 33.1675 126.787 32.9917 127.314 32.6401C127.841 32.2886 128.276 31.792 128.619 31.1504V24.5322C128.285 23.9346 127.85 23.46 127.314 23.1084C126.778 22.7568 126.136 22.5811 125.389 22.5811C124.563 22.5811 123.882 22.8184 123.346 23.293C122.81 23.7588 122.41 24.4092 122.146 25.2441C121.882 26.0703 121.75 27.0327 121.75 28.1313V28.4082C121.75 29.8408 122.045 30.9922 122.634 31.8623C123.223 32.7324 124.132 33.1675 125.363 33.1675ZM135.158 35V33.3389L137.307 32.9697V22.7788L135.158 22.4097V20.7354H139.641L139.812 22.5942C140.269 21.9175 140.858 21.3945 141.579 21.0254C142.299 20.6562 143.134 20.4717 144.083 20.4717C145.033 20.4717 145.846 20.6914 146.522 21.1309C147.208 21.5703 147.722 22.2295 148.065 23.1084C148.513 22.2998 149.106 21.6582 149.845 21.1836C150.583 20.709 151.444 20.4717 152.429 20.4717C153.888 20.4717 155.039 20.9727 155.883 21.9746C156.727 22.9678 157.148 24.4663 157.148 26.4702V32.9697L159.297 33.3389V35H152.389V33.3389L154.538 32.9697V26.4438C154.538 25.0376 154.296 24.0444 153.813 23.4644C153.33 22.8755 152.613 22.5811 151.664 22.5811C150.759 22.5811 150.029 22.9019 149.476 23.5435C148.931 24.1763 148.614 24.9761 148.526 25.9429V32.9697L150.675 33.3389V35H143.78V33.3389L145.929 32.9697V26.4438C145.929 25.1079 145.679 24.1323 145.178 23.5171C144.686 22.8931 143.969 22.5811 143.029 22.5811C142.238 22.5811 141.587 22.7437 141.078 23.0688C140.568 23.394 140.177 23.8511 139.904 24.4399V32.9697L142.053 33.3389V35H135.158ZM165.85 35.2769C164.364 35.2769 163.235 34.9165 162.461 34.1958C161.688 33.4663 161.301 32.4424 161.301 31.124C161.301 29.7705 161.855 28.6851 162.962 27.8677C164.07 27.0415 165.608 26.6284 167.577 26.6284H170.121V25.231C170.121 24.3696 169.857 23.7017 169.33 23.2271C168.812 22.7524 168.078 22.5151 167.128 22.5151C166.531 22.5151 166.012 22.5898 165.573 22.7393C165.133 22.8799 164.733 23.0776 164.373 23.3325L164.096 25.3232H162.092V22.0537C162.734 21.5352 163.481 21.144 164.333 20.8804C165.186 20.6079 166.131 20.4717 167.168 20.4717C168.899 20.4717 170.257 20.8848 171.242 21.7109C172.226 22.5371 172.718 23.7192 172.718 25.2573V32.126C172.718 32.3105 172.718 32.4907 172.718 32.6665C172.727 32.8423 172.74 33.0181 172.758 33.1938L174.142 33.3389V35H170.411C170.332 34.6133 170.271 34.2661 170.227 33.9585C170.183 33.6509 170.152 33.3433 170.134 33.0356C169.633 33.6772 169.005 34.2134 168.249 34.644C167.502 35.0659 166.702 35.2769 165.85 35.2769ZM166.232 33.1016C167.093 33.1016 167.88 32.895 168.592 32.4819C169.304 32.0688 169.813 31.5723 170.121 30.9922V28.4082H167.484C166.289 28.4082 165.393 28.6938 164.795 29.2651C164.197 29.8364 163.898 30.4736 163.898 31.1768C163.898 31.8008 164.092 32.2798 164.479 32.6138C164.865 32.939 165.45 33.1016 166.232 33.1016ZM176.133 35V33.3389L178.282 32.9697V22.7788L176.133 22.4097V20.7354H180.602L180.826 22.5547L180.853 22.8052C181.257 22.0757 181.753 21.5044 182.342 21.0913C182.94 20.6782 183.621 20.4717 184.386 20.4717C184.658 20.4717 184.935 20.498 185.216 20.5508C185.506 20.5947 185.713 20.6387 185.836 20.6826L185.493 23.0952L183.687 22.9897C183.001 22.9458 182.426 23.104 181.96 23.4644C181.494 23.8159 181.134 24.2905 180.879 24.8882V32.9697L183.028 33.3389V35H176.133ZM187.022 35V33.3389L189.171 32.9697V16.4771L187.022 16.1079V14.4336H191.769V32.9697L193.917 33.3389V35H187.022ZM196.185 35V33.3389L197.635 33.1675L197.596 33.1147L193.469 27.7886L194.814 25.7188L200.575 33.0225L202.632 33.3389V35H196.185ZM191.584 30.8735L190.622 28.8301L196.818 22.6602L196.884 22.5811L195.354 22.4097V20.7354H201.498V22.4097L199.666 22.7524L191.584 30.8735ZM209.843 35.2769C208.525 35.2769 207.378 34.978 206.402 34.3804C205.427 33.7739 204.671 32.9346 204.135 31.8623C203.607 30.79 203.344 29.5508 203.344 28.1445V27.5645C203.344 26.2109 203.621 25.0024 204.174 23.939C204.737 22.8667 205.479 22.0229 206.402 21.4077C207.334 20.7837 208.349 20.4717 209.448 20.4717C210.731 20.4717 211.803 20.7354 212.665 21.2627C213.535 21.79 214.189 22.5327 214.629 23.4907C215.068 24.4399 215.288 25.5605 215.288 26.8525V28.4741H206.033L205.994 28.54C206.011 29.4541 206.169 30.2671 206.468 30.979C206.776 31.6821 207.215 32.2358 207.787 32.6401C208.358 33.0444 209.043 33.2466 209.843 33.2466C210.722 33.2466 211.491 33.1235 212.15 32.8774C212.818 32.6226 213.394 32.2754 213.877 31.8359L214.893 33.5234C214.383 34.0156 213.706 34.4331 212.862 34.7759C212.027 35.1099 211.021 35.2769 209.843 35.2769ZM206.112 26.4438H212.691V26.1011C212.691 25.4155 212.568 24.8047 212.322 24.2686C212.084 23.7236 211.724 23.2974 211.241 22.9897C210.766 22.6733 210.168 22.5151 209.448 22.5151C208.868 22.5151 208.34 22.6865 207.866 23.0293C207.391 23.3633 207 23.8203 206.692 24.4004C206.385 24.9805 206.183 25.6396 206.086 26.3779L206.112 26.4438ZM217.292 35V33.3389L219.441 32.9697V22.7788L217.292 22.4097V20.7354H221.761L221.985 22.5547L222.012 22.8052C222.416 22.0757 222.913 21.5044 223.501 21.0913C224.099 20.6782 224.78 20.4717 225.545 20.4717C225.817 20.4717 226.094 20.498 226.375 20.5508C226.666 20.5947 226.872 20.6387 226.995 20.6826L226.652 23.0952L224.846 22.9897C224.161 22.9458 223.585 23.104 223.119 23.4644C222.653 23.8159 222.293 24.2905 222.038 24.8882V32.9697L224.187 33.3389V35H217.292Z" fill="black"/>
<defs>
<clipPath id="clip0_208_161">
<rect width="53" height="51" fill="white"/>
</clipPath>
</defs>
</svg>
