<svg width="50" height="50" viewBox="0 0 51 51" fill="none" xmlns="http://www.w3.org/2000/svg">
<circle cx="25" cy="25" r="24" fill="white" stroke="#345DAB" stroke-width="2"/>
<g clip-path="url(#clip0_251_174)">
<path d="M19.1665 30.8333H22.8448L34.214 19.4642C34.701 18.976 34.9745 18.3146 34.9745 17.625C34.9745 16.9354 34.701 16.274 34.214 15.7858C33.7187 15.3124 33.06 15.0482 32.3748 15.0482C31.6897 15.0482 31.0309 15.3124 30.5357 15.7858L19.1665 27.155V30.8333ZM20.8332 27.845L31.714 16.9642C31.892 16.7941 32.1287 16.6992 32.3748 16.6992C32.621 16.6992 32.8577 16.7941 33.0357 16.9642C33.2106 17.1396 33.3089 17.3772 33.3089 17.625C33.3089 17.8728 33.2106 18.1104 33.0357 18.2858L22.1548 29.1667H20.8332V27.845Z" fill="#345DAB"/>
<path d="M34.6842 21.3517L33.3333 22.7025V28.3333H28.3333V33.3333H16.6667V17.5C16.6667 17.279 16.7545 17.067 16.9107 16.9107C17.067 16.7545 17.279 16.6667 17.5 16.6667H27.2983L28.6492 15.3158C28.7708 15.203 28.8991 15.0976 29.0333 15H17.5C16.837 15 16.2011 15.2634 15.7322 15.7322C15.2634 16.2011 15 16.837 15 17.5V35H30.345L35 30.345V20.9675C34.9022 21.1016 34.7968 21.2298 34.6842 21.3517ZM30 32.9883V30H32.9883L30 32.9883Z" fill="#345DAB"/>
</g>
<defs>
<clipPath id="clip0_251_174">
<rect width="20" height="20" fill="white" transform="translate(15 15)"/>
</clipPath>
</defs>
</svg>
