<svg width="50" height="50" viewBox="0 0 51 51" fill="none" xmlns="http://www.w3.org/2000/svg">
<circle cx="25" cy="25" r="24" fill="white" stroke="#345DAB" stroke-width="2"/>
<g clip-path="url(#clip0_251_175)">
<path d="M32.5 15H17.5C16.837 15 16.2011 15.2634 15.7322 15.7322C15.2634 16.2011 15 16.837 15 17.5V35H35V17.5C35 16.837 34.7366 16.2011 34.2678 15.7322C33.7989 15.2634 33.163 15 32.5 15ZM17.5 16.6667H32.5C32.721 16.6667 32.933 16.7545 33.0893 16.9107C33.2455 17.067 33.3333 17.279 33.3333 17.5V32.155L24.2675 23.0892C23.7987 22.6205 23.1629 22.3572 22.5 22.3572C21.8371 22.3572 21.2013 22.6205 20.7325 23.0892L16.6667 27.155V17.5C16.6667 17.279 16.7545 17.067 16.9107 16.9107C17.067 16.7545 17.279 16.6667 17.5 16.6667ZM16.6667 29.5117L21.9108 24.2675C22.0671 24.1113 22.279 24.0235 22.5 24.0235C22.721 24.0235 22.9329 24.1113 23.0892 24.2675L32.155 33.3333H16.6667V29.5117Z" fill="#345DAB"/>
<path d="M28.3335 23.3333C28.8279 23.3333 29.3113 23.1867 29.7224 22.912C30.1335 22.6373 30.454 22.2469 30.6432 21.79C30.8324 21.3332 30.8819 20.8306 30.7855 20.3456C30.689 19.8607 30.4509 19.4152 30.1013 19.0656C29.7516 18.7159 29.3062 18.4778 28.8212 18.3814C28.3363 18.2849 27.8336 18.3344 27.3768 18.5236C26.92 18.7128 26.5295 19.0333 26.2548 19.4444C25.9801 19.8555 25.8335 20.3389 25.8335 20.8333C25.8335 21.4964 26.0969 22.1323 26.5657 22.6011C27.0346 23.0699 27.6705 23.3333 28.3335 23.3333ZM28.3335 20C28.4983 20 28.6594 20.0489 28.7965 20.1404C28.9335 20.232 29.0403 20.3622 29.1034 20.5144C29.1665 20.6667 29.183 20.8343 29.1508 20.9959C29.1187 21.1576 29.0393 21.306 28.9228 21.4226C28.8062 21.5391 28.6577 21.6185 28.4961 21.6507C28.3344 21.6828 28.1669 21.6663 28.0146 21.6032C27.8623 21.5402 27.7322 21.4333 27.6406 21.2963C27.549 21.1593 27.5002 20.9981 27.5002 20.8333C27.5002 20.6123 27.588 20.4004 27.7442 20.2441C27.9005 20.0878 28.1125 20 28.3335 20Z" fill="#345DAB"/>
</g>
<defs>
<clipPath id="clip0_251_175">
<rect width="20" height="20" fill="white" transform="translate(15 15)"/>
</clipPath>
</defs>
</svg>
