<svg width="50" height="50" viewBox="0 0 51 51" fill="none" xmlns="http://www.w3.org/2000/svg">
<circle cx="25" cy="25" r="24" fill="white" stroke="#345DAB" stroke-width="2"/>
<g clip-path="url(#clip0_251_172)">
<path d="M30.6832 34.1667C30.4134 34.1658 30.1465 34.1065 29.8978 33.992C29.6491 33.8776 29.4236 33.7103 29.2343 33.4998L24.7499 28.6171L20.2656 33.503C19.9776 33.823 19.6082 34.0406 19.2056 34.1274C18.8031 34.2141 18.386 34.166 18.0088 33.9894C17.6278 33.8215 17.3019 33.5318 17.0736 33.1579C16.8453 32.7841 16.7252 32.3435 16.7291 31.8938V18.993C16.7291 17.934 17.1132 16.9184 17.7969 16.1695C18.4807 15.4207 19.408 15 20.3749 15H29.1249C29.6037 15 30.0778 15.1033 30.5201 15.3039C30.9625 15.5046 31.3644 15.7987 31.7029 16.1695C32.0415 16.5403 32.31 16.9805 32.4932 17.465C32.6765 17.9494 32.7708 18.4687 32.7708 18.993V31.8938C32.7748 32.3432 32.6552 32.7835 32.4275 33.1573C32.1997 33.5311 31.8744 33.821 31.494 33.9894C31.2372 34.107 30.9615 34.1673 30.6832 34.1667ZM20.3749 16.5972C19.7948 16.5972 19.2384 16.8496 18.8281 17.2989C18.4179 17.7482 18.1874 18.3576 18.1874 18.993V31.8938C18.1872 32.0269 18.2229 32.1571 18.2902 32.2679C18.3574 32.3787 18.4532 32.4652 18.5653 32.5165C18.6774 32.5678 18.8009 32.5815 18.9201 32.556C19.0394 32.5304 19.149 32.4667 19.2352 32.373L24.2395 26.9256C24.3761 26.7769 24.5609 26.6934 24.7536 26.6934C24.9462 26.6934 25.131 26.7769 25.2676 26.9256L30.2661 32.3714C30.3523 32.4651 30.4619 32.5288 30.5812 32.5544C30.7004 32.5799 30.8239 32.5662 30.936 32.5149C31.0482 32.4636 31.1439 32.3771 31.2111 32.2663C31.2784 32.1555 31.3142 32.0253 31.3139 31.8922V18.993C31.3139 18.3576 31.0834 17.7482 30.6732 17.2989C30.2629 16.8496 29.7066 16.5972 29.1264 16.5972H20.3749Z" fill="#345DAB"/>
</g>
<defs>
<clipPath id="clip0_251_172">
<rect width="17.5" height="19.1667" fill="white" transform="translate(16 15)"/>
</clipPath>
</defs>
</svg>
