<svg width="40" height="49" viewBox="0 0 65 64" fill="none" xmlns="http://www.w3.org/2000/svg">
<g clip-path="url(#clip0_94_62)">
<path d="M41.9792 37.3333H39.8396L39.0813 36.6133C41.7354 33.5733 43.3333 29.6267 43.3333 25.3333C43.3333 15.76 35.4521 8 25.7292 8C16.0063 8 8.125 15.76 8.125 25.3333C8.125 34.9067 16.0063 42.6667 25.7292 42.6667C30.0896 42.6667 34.0979 41.0933 37.1854 38.48L37.9167 39.2267V41.3333L51.4583 54.64L55.4938 50.6667L41.9792 37.3333ZM25.7292 37.3333C18.9854 37.3333 13.5417 31.9733 13.5417 25.3333C13.5417 18.6933 18.9854 13.3333 25.7292 13.3333C32.4729 13.3333 37.9167 18.6933 37.9167 25.3333C37.9167 31.9733 32.4729 37.3333 25.7292 37.3333Z" fill="#979797"/>
</g>
<defs>
<clipPath id="clip0_94_62">
<rect width="65" height="64" rx="10" fill="white"/>
</clipPath>
</defs>
</svg>
